<?xml version="1.0" encoding="UTF-8" standalone="no"?><!DOCTYPE svg PUBLIC "-//W3C//DTD SVG 1.1//EN" "http://www.w3.org/Graphics/SVG/1.1/DTD/svg11.dtd"><svg width="100%" height="100%" viewBox="0 0 48 48" version="1.1" xmlns="http://www.w3.org/2000/svg" xmlns:xlink="http://www.w3.org/1999/xlink" xml:space="preserve" style="fill-rule:evenodd;clip-rule:evenodd;stroke-linejoin:round;stroke-miterlimit:1.41421;"><path d="M44.55,37.95l-33.45,-33.45l-2.55,2.55l33.45,33.45l2.55,-2.55Z" style="fill:#454545;"/><path d="M9.444,13.044l2.87,2.87c-1.461,2.21 -2.314,4.853 -2.314,7.686l0,4l8,0l0,16l-6,0c-3.3,0 -6,-2.7 -6,-6l0,-14c0,-3.935 1.28,-7.586 3.444,-10.556Zm20.556,20.556l9.119,9.119c-0.91,0.559 -1.979,0.881 -3.119,0.881l-6,0l0,-10Zm-18.151,-23.251c3.208,-2.945 7.479,-4.749 12.151,-4.749c9.9,0 18,8 18,18l0,14c0,0.851 -0.18,1.662 -0.503,2.397l-11.497,-11.497l0,-0.9l8,0l0,-4c0,-7.7 -6.3,-14 -14,-14c-3.572,0 -6.842,1.356 -9.322,3.578l-2.829,-2.829Z" style="fill:#fff;"/><path d="M44.55,37.95l-33.45,-33.45l-2.55,2.55l33.45,33.45l2.55,-2.55Z" style="fill:#fff;"/></svg>