<?xml version="1.0" encoding="UTF-8" standalone="no"?>
<!DOCTYPE svg PUBLIC "-//W3C//DTD SVG 1.1//EN" "http://www.w3.org/Graphics/SVG/1.1/DTD/svg11.dtd">
<svg width="100%" height="100%" viewBox="0 0 48 48" version="1.1" xmlns="http://www.w3.org/2000/svg" xmlns:xlink="http://www.w3.org/1999/xlink" xml:space="preserve" style="fill-rule:evenodd;clip-rule:evenodd;stroke-linejoin:round;stroke-miterlimit:1.41421;">
    <path d="M45.8,13.8L44.1,10.6L2.2,32.5L3.9,35.7" style="fill:rgb(69,69,69);fill-rule:nonzero;"/>
    <path d="M11.575,27.6L18,27.6L18,43.6L12,43.6C8.7,43.6 6,40.9 6,37.6L6,30.514L11.575,27.6ZM38.814,13.363C40.821,16.262 42,19.786 42,23.6L42,37.6C42,40.9 39.3,43.6 36,43.6L30,43.6L30,27.6L38,27.6L38,23.6C38,20.475 36.962,17.58 35.214,15.244L38.814,13.363ZM6,26.432L6,23.6C6,13.7 14.1,5.6 24,5.6C28.805,5.6 33.187,7.485 36.423,10.568L32.592,12.566C30.216,10.709 27.231,9.6 24,9.6C16.3,9.6 10,15.9 10,23.6L10,24.346L6,26.432Z" style="fill:rgb(69,69,69);"/>
</svg>
