<?xml version="1.0" encoding="UTF-8" standalone="no"?><!DOCTYPE svg PUBLIC "-//W3C//DTD SVG 1.1//EN" "http://www.w3.org/Graphics/SVG/1.1/DTD/svg11.dtd"><svg width="100%" height="100%" viewBox="0 0 24 24" version="1.1" xmlns="http://www.w3.org/2000/svg" xmlns:xlink="http://www.w3.org/1999/xlink" xml:space="preserve" style="fill-rule:evenodd;clip-rule:evenodd;stroke-linejoin:round;stroke-miterlimit:1.41421;"><path d="M0,0l24,0l0,24l-24,0l0,-24Z" style="fill:none;"/><path d="M4.194,5.518l-1.533,-1.534l1.323,-1.323l17.355,17.354l-1.323,1.323l-1.401,-1.401c-0.199,0.041 -0.404,0.063 -0.615,0.063l-3,0l0,-3.677l-9.326,-9.326c-0.432,0.91 -0.674,1.928 -0.674,3.003l0,2l4,0l0,8l-3,0c-1.66,0 -3,-1.34 -3,-3l0,-7c0,-1.632 0.435,-3.163 1.194,-4.482Zm2.503,-2.79c1.487,-1.087 3.32,-1.728 5.303,-1.728c4.97,0 9,4.03 9,9l0,7l0,0.03l-5.031,-5.03l3.031,0l0,-2c0,-3.87 -3.13,-7 -7,-7c-1.431,0 -2.761,0.428 -3.868,1.163l-1.435,-1.435Z" style="fill:#fff;"/></svg>