<?xml version="1.0" encoding="UTF-8" standalone="no"?><!DOCTYPE svg PUBLIC "-//W3C//DTD SVG 1.1//EN" "http://www.w3.org/Graphics/SVG/1.1/DTD/svg11.dtd"><svg width="100%" height="100%" viewBox="0 0 64 64" version="1.1" xmlns="http://www.w3.org/2000/svg" xmlns:xlink="http://www.w3.org/1999/xlink" xml:space="preserve" style="fill-rule:evenodd;clip-rule:evenodd;stroke-linejoin:round;stroke-miterlimit:1.41421;"><g id="Layer_2"><rect x="0.62" y="12.388" width="62.764" height="39.228" style="fill:#fff;fill-opacity:0.25;"/><g><g opacity="0.75"><rect x="3.902" y="15.646" width="18.026" height="32.606" style="fill:#fff;fill-opacity:0.5;"/><rect x="22.987" y="15.698" width="18.026" height="32.606" style="fill:#fff;fill-opacity:0.5;"/><rect x="42.072" y="15.698" width="18.026" height="32.606" style="fill:#fff;fill-opacity:0.5;"/></g></g><path d="M29.018,36.595c-0.569,-1.467 -0.407,-3.278 0.469,-4.587c0.973,-1.454 2.812,-2.231 3.519,-3.877c0.671,-1.561 -0.141,-3.255 -1.896,-3.395c-1.869,-0.149 -3.775,0.776 -5.146,1.981c0,-1.43 0,-2.86 0,-4.289c0,-0.828 2.161,-1.249 2.83,-1.401c1.766,-0.4 3.704,-0.416 5.45,0.095c3.157,0.924 4.598,4.253 3.425,7.296c-0.665,1.725 -2.135,2.803 -3.467,3.989c-1.159,1.033 -2.168,2.652 -1.187,4.19c-1.328,0.002 -2.675,0.043 -3.997,-0.002Zm2.219,6.658c-1.435,0 -2.827,-0.992 -2.827,-2.524c0,-1.535 1.396,-2.492 2.827,-2.492c1.432,0 2.782,0.97 2.782,2.491c0,1.545 -1.319,2.525 -2.782,2.525Z" style="fill:#fff;fill-rule:nonzero;"/></g></svg>