<?xml version="1.0" encoding="UTF-8" standalone="no"?><!DOCTYPE svg PUBLIC "-//W3C//DTD SVG 1.1//EN" "http://www.w3.org/Graphics/SVG/1.1/DTD/svg11.dtd"><svg width="100%" height="100%" viewBox="0 0 512 512" version="1.1" xmlns="http://www.w3.org/2000/svg" xmlns:xlink="http://www.w3.org/1999/xlink" xml:space="preserve" style="fill-rule:evenodd;clip-rule:evenodd;stroke-linejoin:round;stroke-miterlimit:1.41421;"><path d="M156.309,380.407c0,35.346 -28.653,64 -63.996,64c-35.352,0 -64.004,-28.654 -64.004,-64c0,-27.27 17.054,-50.552 41.08,-59.771c7.113,-2.736 14.849,-4.229 22.924,-4.229c8.083,0 15.81,1.501 22.924,4.229c24.018,9.219 41.072,32.501 41.072,59.771Zm276.752,59.79l-26.751,0c-6.683,0 -12.113,-5.43 -12.113,-12.113l0,-205.817c8.104,2.286 16.658,3.503 25.489,3.503c8.831,0 17.385,-1.217 25.488,-3.503l0,205.817c0,6.683 -5.42,12.113 -12.113,12.113Zm-163.686,-0.001l-26.751,0c-6.683,0 -12.113,-5.43 -12.113,-12.113l0,-81.679c8.104,2.287 16.658,3.503 25.489,3.503c8.831,0 17.385,-1.217 25.488,-3.503l0,81.679c0,6.683 -5.43,12.113 -12.113,12.113Zm50.625,-184.185c0,27.042 -16.76,50.16 -40.465,59.54c-7.286,2.877 -15.228,4.46 -23.535,4.46c-8.307,0 -16.249,-1.583 -23.535,-4.46c-23.705,-9.38 -40.465,-32.498 -40.465,-59.54c0,-27.042 16.76,-50.16 40.465,-59.54c7.286,-2.877 15.228,-4.46 23.535,-4.46c8.307,0 16.249,1.583 23.535,4.46c23.705,9.38 40.465,32.498 40.465,59.54Zm-202.198,-171.741l0,205.743c-8.103,-2.286 -16.657,-3.503 -25.488,-3.503c-8.831,0 -17.385,1.217 -25.488,3.503l0,-205.743c0,-6.692 5.42,-12.113 12.113,-12.113l26.751,0c6.682,0.001 12.112,5.421 12.112,12.113Zm365.889,47.604c0,27.276 -17.054,50.557 -41.08,59.776c-7.113,2.736 -14.849,4.228 -22.924,4.228c-8.083,0 -15.81,-1.501 -22.924,-4.228c-24.018,-9.219 -41.072,-32.508 -41.072,-59.776c0,-35.343 28.653,-63.996 63.996,-63.996c35.351,0 64.004,28.652 64.004,63.996Zm-202.203,-47.604l0,81.347c-8.103,-2.286 -16.657,-3.503 -25.488,-3.503c-8.831,0 -17.385,1.217 -25.488,3.503l0,-81.347c0,-6.692 5.43,-12.113 12.113,-12.113l26.751,0c6.683,0.001 12.112,5.421 12.112,12.113Z" style="fill:#fff;"/></svg>