<?xml version="1.0" encoding="UTF-8" standalone="no"?><!DOCTYPE svg PUBLIC "-//W3C//DTD SVG 1.1//EN" "http://www.w3.org/Graphics/SVG/1.1/DTD/svg11.dtd"><svg width="100%" height="100%" viewBox="0 0 400 400" version="1.1" xmlns="http://www.w3.org/2000/svg" xmlns:xlink="http://www.w3.org/1999/xlink" xml:space="preserve" style="fill-rule:evenodd;clip-rule:evenodd;stroke-linejoin:round;stroke-miterlimit:1.41421;"><path d="M400,355.533l0,-311.066c0,-24.569 -19.898,-44.467 -44.467,-44.467l-311.066,0c-24.569,0 -44.467,19.898 -44.467,44.467l0,311.066c0,24.569 19.898,44.467 44.467,44.467l311.066,0c24.569,0 44.467,-19.898 44.467,-44.467Z" style="fill:#fafafa;fill-rule:nonzero;"/><path d="M200,41.05c-71.8,0 -130,58.2 -130,130l0,101.1c0,23.9 19.5,43.3 43.3,43.3l43.3,0l0,-115.4l-57.9,0l0,-28.9c0,-55.9 45.3,-101.1 101.2,-101.1c55.9,0 101.1,45.2 101.1,101.1l0,28.9l-57.8,0l0,115.6l57.8,0l0,14.4l-101,0l0,28.9l86.7,0c23.9,0 43.3,-19.5 43.3,-43.3l0,-144.5c0,-71.8 -58.2,-130.1 -130,-130.1Z" style="fill:#212121;fill-rule:nonzero;"/></svg>