<?xml version="1.0" encoding="UTF-8" standalone="no"?><!DOCTYPE svg PUBLIC "-//W3C//DTD SVG 1.1//EN" "http://www.w3.org/Graphics/SVG/1.1/DTD/svg11.dtd"><svg width="100%" height="100%" viewBox="0 0 48 48" version="1.1" xmlns="http://www.w3.org/2000/svg" xmlns:xlink="http://www.w3.org/1999/xlink" xml:space="preserve" style="fill-rule:evenodd;clip-rule:evenodd;stroke-linejoin:round;stroke-miterlimit:1.41421;"><path d="M24,3c-9.9,0 -18,8.1 -18,18l0,14c0,3.3 2.7,6 6,6l6,0l0,-16l-8,0l0,-4c0,-7.7 6.3,-14 14,-14c7.7,0 14,6.3 14,14l0,4l-8,0l0,16l6,0c3.3,0 6,-2.7 6,-6l0,-14c0,-9.9 -8.1,-18 -18,-18Z" style="fill:#fff;fill-rule:nonzero;"/></svg>