<?xml version="1.0" encoding="UTF-8" standalone="no"?><!DOCTYPE svg PUBLIC "-//W3C//DTD SVG 1.1//EN" "http://www.w3.org/Graphics/SVG/1.1/DTD/svg11.dtd"><svg width="100%" height="100%" viewBox="0 0 48 48" version="1.1" xmlns="http://www.w3.org/2000/svg" xmlns:xlink="http://www.w3.org/1999/xlink" xml:space="preserve" style="fill-rule:evenodd;clip-rule:evenodd;stroke-linejoin:round;stroke-miterlimit:1.41421;"><path d="M24,5c-11.1,0 -20,8.9 -20,20c0,11.1 8.9,20 20,20c11.1,0 20,-9 20,-20c0,-11 -9,-20 -20,-20Zm13.8,12l-5.9,0c-0.6,-2.5 -1.6,-4.9 -2.8,-7.1c3.8,1.2 6.8,3.8 8.7,7.1Zm-13.8,-7.9c1.7,2.4 3,5.1 3.8,7.9l-7.6,0c0.8,-2.9 2.1,-5.5 3.8,-7.9Zm-15.5,19.9c-0.3,-1.3 -0.5,-2.6 -0.5,-4c0,-1.4 0.2,-2.7 0.5,-4l6.8,0c-0.2,1.3 -0.3,2.6 -0.3,4c0,1.4 0.1,2.7 0.3,4l-6.8,0Zm1.7,4l5.9,0c0.6,2.5 1.6,4.9 2.8,7.1c-3.8,-1.2 -6.8,-3.8 -8.7,-7.1Zm5.9,-16l-5.9,0c1.9,-3.3 5,-5.9 8.7,-7.1c-1.3,2.2 -2.2,4.6 -2.8,7.1Zm7.9,23.9c-1.7,-2.4 -3,-5.1 -3.8,-7.9l7.6,0c-0.8,2.9 -2.1,5.5 -3.8,7.9Zm4.7,-11.9l-9.4,0c-0.2,-1.3 -0.3,-2.6 -0.3,-4c0,-1.4 0.1,-2.7 0.3,-4l9.4,0c0.2,1.3 0.3,2.6 0.3,4c0,1.4 -0.1,2.7 -0.3,4Zm0.5,11.1c1.2,-2.2 2.1,-4.6 2.8,-7.1l5.9,0c-2,3.3 -5,5.9 -8.7,7.1Zm3.5,-11.1c0.2,-1.3 0.3,-2.6 0.3,-4c0,-1.4 -0.1,-2.7 -0.3,-4l6.8,0c0.3,1.3 0.5,2.6 0.5,4c0,1.4 -0.2,2.7 -0.5,4l-6.8,0Z" style="fill:#fff;fill-rule:nonzero;"/></svg>