<?xml version="1.0" encoding="UTF-8" standalone="no"?><!DOCTYPE svg PUBLIC "-//W3C//DTD SVG 1.1//EN" "http://www.w3.org/Graphics/SVG/1.1/DTD/svg11.dtd"><svg width="100%" height="100%" viewBox="0 0 48 48" version="1.1" xmlns="http://www.w3.org/2000/svg" xmlns:xlink="http://www.w3.org/1999/xlink" xml:space="preserve" style="fill-rule:evenodd;clip-rule:evenodd;stroke-linejoin:round;stroke-miterlimit:1.41421;"><path d="M7.8,24c0,-3.42 2.78,-6.2 6.2,-6.2l8,0l0,-3.8l-8,0c-5.52,0 -10,4.48 -10,10c0,5.52 4.48,10 10,10l8,0l0,-3.8l-8,0c-3.42,0 -6.2,-2.78 -6.2,-6.2Zm8.2,2l16,0l0,-4l-16,0l0,4Zm18,-12l-8,0l0,3.8l8,0c3.42,0 6.2,2.78 6.2,6.2c0,3.42 -2.78,6.2 -6.2,6.2l-8,0l0,3.8l8,0c5.52,0 10,-4.48 10,-10c0,-5.52 -4.48,-10 -10,-10Z" style="fill:#fff;fill-rule:nonzero;"/></svg>