<?xml version="1.0" encoding="UTF-8" standalone="no"?><!DOCTYPE svg PUBLIC "-//W3C//DTD SVG 1.1//EN" "http://www.w3.org/Graphics/SVG/1.1/DTD/svg11.dtd"><svg width="100%" height="100%" viewBox="0 0 48 48" version="1.1" xmlns="http://www.w3.org/2000/svg" xmlns:xlink="http://www.w3.org/1999/xlink" xml:space="preserve" style="fill-rule:evenodd;clip-rule:evenodd;stroke-linejoin:round;stroke-miterlimit:1.41421;"><path d="M24,29c3.3,0 6,-2.7 6,-6l0,-12c0,-3.3 -2.7,-6 -6,-6c-3.3,0 -6,2.7 -6,6l0,12c0,3.3 2.7,6 6,6Zm10.6,-6c0,6 -5.1,10.2 -10.6,10.2c-5.5,0 -10.6,-4.2 -10.6,-10.2l-3.4,0c0,6.8 5.4,12.5 12,13.4l0,6.6l4,0l0,-6.6c6.6,-1 12,-6.6 12,-13.4l-3.4,0Z" style="fill:#fff;fill-rule:nonzero;"/></svg>