<?xml version="1.0" encoding="UTF-8" standalone="no"?><!DOCTYPE svg PUBLIC "-//W3C//DTD SVG 1.1//EN" "http://www.w3.org/Graphics/SVG/1.1/DTD/svg11.dtd"><svg width="100%" height="100%" viewBox="0 0 24 24" version="1.1" xmlns="http://www.w3.org/2000/svg" xmlns:xlink="http://www.w3.org/1999/xlink" xml:space="preserve" style="fill-rule:evenodd;clip-rule:evenodd;stroke-linejoin:round;stroke-miterlimit:1.41421;"><path d="M12,9c-1.656,0 -3,1.344 -3,3c0,1.656 1.344,3 3,3c1.656,0 3,-1.344 3,-3c0,-1.656 -1.344,-3 -3,-3Zm0,-3c-3.312,0 -6,2.688 -6,6c0,3.312 2.688,6 6,6c3.312,0 6,-2.688 6,-6c0,-3.312 -2.688,-6 -6,-6Zm0,10.8c-2.652,0 -4.8,-2.148 -4.8,-4.8c0,-2.652 2.148,-4.8 4.8,-4.8c2.652,0 4.8,2.148 4.8,4.8c0,2.652 -2.148,4.8 -4.8,4.8Z" style="fill:#009688;fill-rule:nonzero;"/><path d="M0,0l24,0l0,24l-24,0l0,-24Z" style="fill:none;"/></svg>